<svg xmlns="http://www.w3.org/2000/svg" version="1.1" xmlns:xlink="http://www.w3.org/1999/xlink" xmlns:svgjs="http://svgjs.com/svgjs" width="512" height="512" x="0" y="0" viewBox="0 0 496 496" style="enable-background:new 0 0 512 512" xml:space="preserve" class=""><g><path fill="#f0bc5e" d="M40 81.298c0 5.308.851 10.552 2.53 15.59l3.53 10.588A15.921 15.921 0 0 1 56 104h16v-6.111a16 16 0 0 1 8.845-14.311L88 80l4.031 2.687A79.264 79.264 0 0 0 136 96c5.919 0 11.074 3.222 13.842 8H168c3.76 0 7.21 1.306 9.941 3.477l3.53-10.589A49.237 49.237 0 0 0 184 81.298c0-17.275-8.939-32.492-22.426-41.298H62.426C48.938 48.806 40 64.024 40 81.298zM264 128l23.292-23.292A54.972 54.972 0 0 0 320 128l5.24-15.72A54.934 54.934 0 0 0 352 128l.777 1c3.194-14.305 15.955-25 31.223-25V16.6c-4.033-.393-8.131-.6-12.201-.6h-93.266C239.641 16 208 47.641 208 86.533c0 23.637 11.742 45.576 31.409 58.687L261.578 160H264zM419.047 25.305l-.532-.219-2.515-.634V104c17.673 0 32 14.327 32 32v32c0 17.673-14.327 32-32 32h-8l.845 2.534A95.841 95.841 0 0 0 432 240v9.832l11.989-8.564C476.557 218.005 496 180.223 496 140.201c0-50.554-30.206-95.653-76.953-114.896z" data-original="#f0bc5e" class=""></path><path d="M392 176h16c8.822 0 16-7.178 16-16v-16c0-8.822-7.178-16-16-16h-16c-8.822 0-16 7.178-16 16v16c0 8.822 7.178 16 16 16zm0-32h16l.01 16H392z" fill="#000000" data-original="#000000" class=""></path><circle cx="296" cy="152" r="8" fill="#000000" data-original="#000000" class=""></circle><path d="M463.761 312c-1.395-19.203-9.518-37.071-23.27-50.823l-.491-.491v-24l-2.343-2.343c-7.611-7.612-13.797-16.662-18.173-26.504C439.913 206.067 456 188.882 456 168v-32c0-19.317-13.764-35.479-32-39.195V16c0-8.822-7.178-16-16-16h-16c-8.822 0-16 7.178-16 16v80.805a39.835 39.835 0 0 0-16 7.217V96h-16v20.526a46.88 46.88 0 0 1-24.239-30.466l-15.522 3.881a62.97 62.97 0 0 0 11.967 24.143l-1.27 3.81a46.876 46.876 0 0 1-27.175-31.834l-15.522 3.881a63.137 63.137 0 0 0 5.052 13.455L264 116.687l-2.343-2.343A19.187 19.187 0 0 1 256 100.687v-1.373a19.187 19.187 0 0 1 5.657-13.657l-11.313-11.313C243.673 81.013 240 89.881 240 99.313v1.373c0 9.433 3.673 18.3 10.343 24.97l5.657 5.657v46.851a50.157 50.157 0 0 0-29.051 29.835h-45.113A50.164 50.164 0 0 0 136 176.008v-2.667a43.031 43.031 0 0 0 22.986-29.342H168c13.234 0 24-10.766 24-24s-10.766-24-24-24h-14.131c-4.397-4.906-10.778-8-17.869-8a71.04 71.04 0 0 1-39.532-11.97l-7.894-5.262-11.308 5.654C69.651 80.23 64.726 87.619 64.078 96H56c-13.234 0-24 10.766-24 24s10.766 24 24 24h9.014A43.031 43.031 0 0 0 88 173.342v2.667A50.162 50.162 0 0 0 42.164 208H24c-4.411 0-8-3.589-8-8V56c0-4.411 3.589-8 8-8h195.501a71.103 71.103 0 0 1 14.353-16H24C10.767 32 0 42.766 0 56v144c0 13.234 10.767 24 24 24h99.718l26.531 39.797A18.385 18.385 0 0 0 165.577 272c10.158 0 18.422-8.264 18.422-18.422V224h40.021c-.006.328-.021.655-.021.985V264c0 13.234 10.766 24 24 24s24-10.766 24-24-10.766-24-24-24h-8v-15.015a34.19 34.19 0 0 1 16.1-29.046C258.161 238.228 293.208 272 336 272c1.932 0 3.862-.082 5.786-.224C318.964 287.691 304 314.129 304 344v32h-88c-19.317 0-35.479 13.764-39.195 32H94.034L49.261 251.291C47.361 244.643 41.206 240 34.292 240c-3.083 0-6.069.904-8.636 2.615L8.887 253.794A19.915 19.915 0 0 0 0 270.399c0 1.774.237 3.541.703 5.251L41.85 426.525c2.402 8.808 7.677 16.264 14.638 21.475H16c-8.822 0-16 7.178-16 16v16c0 8.822 7.178 16 16 16h448V312zM168 112c4.411 0 8 3.589 8 8s-3.589 8-8 8h-8v-16zm-120 8c0-4.411 3.589-8 8-8h8v16h-8c-4.411 0-8-3.589-8-8zm117.578 136a2.418 2.418 0 0 1-2.016-1.079L132.281 208h-72.28a34.19 34.19 0 0 1 28.984-16H104v-29.766l-5.47-1.823A27.066 27.066 0 0 1 80 134.702V97.889a7.956 7.956 0 0 1 4.422-7.156l3.003-1.501.168.112A86.997 86.997 0 0 0 136 104c4.411 0 8 3.589 8 8v22.702a27.065 27.065 0 0 1-18.53 25.709l-5.47 1.823V192h15.015A34.191 34.191 0 0 1 168 217.065v36.513a2.425 2.425 0 0 1-2.422 2.422zM248 256c4.411 0 8 3.589 8 8s-3.589 8-8 8-8-3.589-8-8v-8zM408 16v80h-16V16zm-24 96h32c13.234 0 24 10.766 24 24v32c0 13.234-10.766 24-24 24h-32c-13.234 0-24-10.766-24-24v-32c0-13.234 10.766-24 24-24zM283.869 229.057c-4.476-6.279-7.862-13.386-9.844-21.057h34.428c-5.178 9.851-13.904 17.385-24.584 21.057zM387.2 233.6l-12.799 9.6c-11.006 8.254-24.643 12.8-38.4 12.8-15.339 0-29.431-5.429-40.467-14.46 15.927-7.62 27.809-21.923 32.228-39.599l2.485-9.94H272v-60.687l14.515-14.515a62.894 62.894 0 0 0 31.545 18.963l7.187 1.797 3.802-11.406a62.872 62.872 0 0 0 15.004 7.784A40.313 40.313 0 0 0 344 136v32c0 22.056 17.944 40 40 40h18.288A104.509 104.509 0 0 0 424 243.235V256h-32c-2.896 0-5.758.145-8.583.419.193-.142.392-.276.584-.419l12.8-9.6zM320 344c0-39.095 31.325-70.988 70.191-71.954-17.784 12.308-31.253 30.552-37.424 52.148L337.965 376H320zm-104 48h8v16h-30.624c3.303-9.311 12.195-16 22.624-16zm24 32v16H80.441c-10.201 0-19.266-6.496-22.627-16zM16.139 271.439a3.962 3.962 0 0 1 1.623-4.332l16.277-10.852L77.394 408H53.383zM240 408v-16h101.578l21.984 14.656 8.875-13.313-19.141-12.761 14.856-51.993c8.213-28.748 31.963-50.369 61.105-56.019C441.345 284.7 448 300.805 448 317.934a64.485 64.485 0 0 1-7.561 30.243l-37.427 70.177A55.9 55.9 0 0 1 353.6 448h-99.765a15.883 15.883 0 0 0 2.165-8v-16c0-8.822-7.178-16-16-16zm64 72H16v-16h288zm16 0v-16h33.6a71.87 71.87 0 0 0 63.529-38.118L448 368v112z" fill="#000000" data-original="#000000" class=""></path><path d="m133.657 141.657-11.313-11.313-2.344 2.343c-2.137 2.137-4.978 3.313-8 3.313s-5.863-1.177-8-3.313l-2.343-2.343-11.313 11.313L92.687 144c5.159 5.159 12.018 8 19.313 8s14.155-2.841 19.313-8zM160 160h16v16h-16zM192 160h16v16h-16zM224 160h16v16h-16z" fill="#000000" data-original="#000000" class=""></path></g></svg>